<svg xmlns="http://www.w3.org/2000/svg" data-name="Layer 5" viewBox="0 0 515.12 531.97"><path fill="#2e2f2e" d="M509.67 338.69q-42.28-24.66-84.62-49.24l-100.16-58.22c-5.55-3.23-11-6.36-18.05-3.84 4.54-3.62 5.72-8.17 5.71-13.33q-.23-101.07-.32-202.15a12 12 0 0 0-16.46-11c-4.61 2-8.57 5-13 7.29s-8.79 5.09-13.18 7.63q-11.55 6.67-23.13 13.3c-5.57 3.21-11.21 6.21-16.77 9.47-7.71 4.53-15.11 9.61-23 13.7-10.63 5.49-20.63 12-31.09 17.78-9.11 5-17.91 10.65-27 15.74-7.57 4.24-15.14 8.55-22.62 13-12.58 7.38-25.55 14.1-37.83 22-6.82 4.39-14.18 7.92-21.2 12-8.61 5-17.57 9.45-26 14.72-10 6.25-20.2 12.1-30.35 17.94-8.67 5-10.45 11.68-10.44 20.22 0 23.69-.51 47.39.12 71.06 1.15 43.24.38 86.48.69 129.72 0 5.23 7.67 10.49 12.24 8.44-.22.79-.43 1.59-.64 2.38-2.25 1.54-2.69 3.67-2.69 6.35v4.08c0 2.42 0 6.14.56 6.69 3.48 4.25 8.62 6.07 13.14 8.7q90.14 52.53 180.35 104.91c1.52.88 2.6 1.63 5.5 3.06a7.55 7.55 0 0 0 7.17 0c3.39-2.18 3.39-2.18 5.09-3.17q79.06-45.84 158.25-91.48 65-37.55 130-75.09c2.1-1.21 4.49-2.17 5.06-4.95 0-4.15.06-8.09.06-12.56-.22-1.68-3.2-3.88-5.39-5.15Zm-104.42-18.35-27.23 15.91a4.12 4.12 0 0 1-3.79 0l-14.4-8.27c-1-.59-1-1.58 0-2.19l27.19-15.9a4.15 4.15 0 0 1 3.79 0l14.44 8.23a1.15 1.15 0 0 1 0 2.22ZM64.12 389.03l12.72-7.44a5.4 5.4 0 0 1 4.89 0l13.25 7.61c1.39.8 1.4 2.07.06 2.85l-12.72 7.44a5.52 5.52 0 0 1-4.93 0l-13.25-7.61c-1.39-.77-1.4-2.05-.02-2.85Zm1.13-174.15c1.15.08 1.32.94 1.59 1.69 2.77 7.77 5.56 15.53 8.3 23.3.41 1.17.65 2.61-.93 3.06-1.77.52-1.87-1.24-2.23-2.24-2.73-7.5-5.33-15-8-22.54-.6-1.64-.73-2.9 1.27-3.27Zm25.21-4.69c-2-1.13-4-2.37-6-3.41s-2.42-2.15-1.24-4.2 2.44-2.05 4.29-.94q6 3.56 12.06 6.86c2 1.12 2.16 2.32 1 4.27-4.77 8.08-9.41 16.24-14.1 24.37-.47.81-.8 1.77-2.21 1.93a4.62 4.62 0 0 1-1.47-.93c-.7-.9-.12-1.78.37-2.62q4.86-8.28 9.69-16.56c3.27-5.62 3.25-5.62-2.36-8.77Zm-2.83 168c-1.35-.77-1.39-2.07 0-2.88l12.72-7.44a5.46 5.46 0 0 1 4.93 0l13.25 7.6c1.35.78 1.36 2.06 0 2.84l-12.72 7.43a5.58 5.58 0 0 1-4.93 0Zm33.12-164.2c.64 2.92-.58 4.22-2.61 5.31-3.71 2-7.25 4.3-10.95 6.28-1.25.67-3 2.93-4 1.06s-1.62-5.23.64-6.76a97.25 97.25 0 0 1 15.16-8.72c3.09-1.4 1.26 2.18 1.79 2.78ZM158 364.12c-1.31-.76-1.36-2-.06-2.76l12.89-7.54a5.25 5.25 0 0 1 4.73 0l13.45 7.73h.08c1.27.73 1.25 1.93-.06 2.69l-12.88 7.54a5.25 5.25 0 0 1-4.73 0Zm7.42 14-12.72 7.44a5.45 5.45 0 0 1-5 0l-13.21-7.58c-1.4-.8-1.4-2.08 0-2.88l12.76-7.49a5.42 5.42 0 0 1 4.93 0l13.25 7.6c1.35.79 1.36 2.06.02 2.84Zm111.94-56.78c-1.31-.75-1.31-2 0-2.74l12.89-7.57a5.21 5.21 0 0 1 4.77 0l13.41 7.7c1.31.75 1.36 2 .06 2.76l-12.92 7.56a5.25 5.25 0 0 1-4.73 0Zm7.54 13.91-12.92 7.56a5.16 5.16 0 0 1-4.73 0l-13.41-7.7c-1.31-.75-1.32-2 0-2.74l12.88-7.53a5.21 5.21 0 0 1 4.77 0l13.42 7.69c1.28.7 1.34 1.93-.01 2.68Zm-1.65-26.11-12.88 7.54a5.25 5.25 0 0 1-4.73 0l-13.39-7.7c-1.31-.76-1.35-2-.05-2.77l12.88-7.53a5.4 5.4 0 0 1 4.77 0l13.46 7.66c1.31.8 1.32 2-.06 2.8Zm-23.59 11c1.35.78 1.36 2 .06 2.76l-12.88 7.53a5.31 5.31 0 0 1-4.77 0l-13.42-7.69c-1.31-.75-1.31-2 0-2.73l12.92-7.56a5.19 5.19 0 0 1 4.73 0Zm-23.52 13.76c1.31.76 1.35 2 0 2.79l-12.88 7.53a5.21 5.21 0 0 1-4.77 0l-13.41-7.7c-1.31-.75-1.32-2 0-2.74l12.88-7.53a5.34 5.34 0 0 1 4.77 0Zm-23.57 13.79c1.31.76 1.31 2 0 2.74l-12.88 7.54a5.31 5.31 0 0 1-4.77 0l-13.36-7.63c-1.31-.75-1.32-2 0-2.74l12.92-7.55a5.13 5.13 0 0 1 4.73 0Zm-29.32 25.92 12.88-7.53a5.24 5.24 0 0 1 4.77 0l13.41 7.7c1.31.76 1.36 2 .06 2.76l-12.92 7.56a5.19 5.19 0 0 1-4.73 0l-13.47-7.76c-1.35-.75-1.35-2 0-2.73Zm23.58-11c-1.35-.78-1.36-2-.05-2.77l12.83-7.5a5.21 5.21 0 0 1 4.77 0l13.41 7.69c1.35.78 1.36 2 .06 2.77l-12.92 7.54a5.19 5.19 0 0 1-4.73 0Zm23.53-13.77c-1.31-.76-1.36-2-.06-2.76l12.88-7.54a5.24 5.24 0 0 1 4.81 0l13.42 7.7c1.31.76 1.31 2 0 2.74l-12.96 7.56a5.25 5.25 0 0 1-4.73 0Zm11.55 17.73 12.88-7.53a5.13 5.13 0 0 1 4.73 0l13.42 7.7c1.31.75 1.31 2 0 2.74l-12.88 7.53a5.19 5.19 0 0 1-4.73 0l-13.45-7.67h-.07c-1.28-.81-1.22-2 .05-2.77Zm23.55-11h-.08c-1.27-.73-1.25-1.93.06-2.69l12.81-7.61a5.25 5.25 0 0 1 4.73 0l13.42 7.7c1.31.76 1.35 2 .05 2.76l-12.88 7.54a5.24 5.24 0 0 1-4.77 0Zm23.52-13.76h-.07c-1.28-.74-1.26-1.94.06-2.7l12.88-7.53a5.19 5.19 0 0 1 4.73 0l13.41 7.69c1.35.78 1.36 2 .06 2.77l-12.88 7.53a5.19 5.19 0 0 1-4.73 0Zm23.57-13.75h-.07c-1.28-.73-1.3-1.95 0-2.72l12.88-7.53a5.19 5.19 0 0 1 4.73 0l13.45 7.72c1.31.76 1.32 2 0 2.74l-12.88 7.53a5.19 5.19 0 0 1-4.73 0Zm19.5-20.33-12.92 7.56a5.25 5.25 0 0 1-4.73 0l-13.42-7.7c-1.35-.78-1.36-2-.06-2.76l12.89-7.54a5.28 5.28 0 0 1 4.77 0l13.45 7.72c1.22.71 1.27 1.94-.03 2.69Zm-14.38-18.61a5.42 5.42 0 0 1-4.93 0l-13.25-7.6c-1.35-.78-1.36-2.06 0-2.84l12.72-7.44a5.52 5.52 0 0 1 4.93 0l13.26 7.6c1.35.78 1.39 2.08 0 2.89Zm-10.86 3.48c1.35.77 1.35 2 0 2.83l-12.71 7.44a5.51 5.51 0 0 1-4.94 0l-13.25-7.6c-1.35-.78-1.36-2.06 0-2.86l12.67-7.41a5.41 5.41 0 0 1 4.94 0Zm-23.42-10.61-12.72 7.44a5.49 5.49 0 0 1-4.93 0l-13.25-7.6c-1.4-.8-1.4-2.08 0-2.88l12.72-7.44a5.42 5.42 0 0 1 4.93 0l13.11 7.6c1.42.8 1.43 2.07.09 2.85Zm-23.64 10.88c1.35.78 1.4 2.08.06 2.86l-12.72 7.44a5.51 5.51 0 0 1-5 0l-13.21-7.58c-1.39-.8-1.4-2.08 0-2.88l12.69-7.37a5.42 5.42 0 0 1 4.93 0Zm-23.5 13.77c1.35.78 1.35 2.05 0 2.83l-12.72 7.44a5.45 5.45 0 0 1-4.93 0l-13.26-7.57c-1.35-.78-1.36-2.05 0-2.86l12.72-7.43a5.42 5.42 0 0 1 4.9 0Zm-23.53 13.77c1.35.78 1.36 2.05 0 2.83L200 330.68a5.51 5.51 0 0 1-4.94 0l-13.25-7.6c-1.35-.78-1.35-2.06 0-2.88l12.72-7.44a5.42 5.42 0 0 1 4.93 0Zm-23.57 13.74c1.39.8 1.4 2.08.06 2.86l-12.72 7.44a5.49 5.49 0 0 1-4.93 0l-13.31-7.58c-1.39-.81-1.4-2.08 0-2.88l12.72-7.44a5.4 5.4 0 0 1 4.89 0Zm-23.52 13.77c1.34.78 1.39 2.08 0 2.86l-12.72 7.43a5.48 5.48 0 0 1-5 0l-13.21-7.58c-1.39-.8-1.4-2.07 0-2.88l12.76-7.41a5.4 5.4 0 0 1 4.89 0Zm-23.53 13.76c1.35.78 1.35 2.06 0 2.84l-12.72 7.44a5.49 5.49 0 0 1-4.93 0l-13.26-7.62c-1.35-.78-1.36-2.06 0-2.86l12.71-7.44a5.42 5.42 0 0 1 4.9 0Zm-31.12 27.14 12.7-7.48a5.55 5.55 0 0 1 4.93 0l13.21 7.62h.08c1.31.76 1.3 2 0 2.82l-12.76 7.42a5.28 5.28 0 0 1-4.89 0L111 391.59c-1.37-.72-1.38-1.99-.04-2.77Zm25.22 12.25 12.72-7.43a5.44 5.44 0 0 1 5 0l13.25 7.61c1.35.78 1.35 2.05 0 2.83l-12.71 7.44a5.45 5.45 0 0 1-4.94 0l-13.27-7.59c-1.36-.78-1.41-2.08-.07-2.86Zm23.51-11c-1.31-.76-1.32-2 0-2.74l12.88-7.54a5.21 5.21 0 0 1 4.77 0l13.42 7.7c1.31.75 1.31 2 0 2.74l-12.88 7.53a5.21 5.21 0 0 1-4.77 0Zm11.54 17.78 12.87-7.51a5.19 5.19 0 0 1 4.73 0l13.42 7.7a1.47 1.47 0 0 1 0 2.76l-12.87 7.54a5.07 5.07 0 0 1-4.73 0l-13.42-7.75c-1.3-.76-1.35-1.96 0-2.74Zm23.54-11h-.07c-1.27-.73-1.22-1.95.06-2.7l12.88-7.53a5.19 5.19 0 0 1 4.73 0l13.41 7.7c1.35.78 1.36 2 .06 2.76l-12.88 7.53a5.19 5.19 0 0 1-4.73 0Zm23.57-13.74h-.07c-1.28-.74-1.3-2 0-2.72l12.88-7.54a5.25 5.25 0 0 1 4.73 0l13.45 7.73c1.31.75 1.32 2 0 2.73l-12.88 7.54a5.25 5.25 0 0 1-4.73 0Zm24.65 11.12 5.16-3 104.26-60.89a5.66 5.66 0 0 1 4.16.28l13.25 7.61c1.14.66 1.27 1.63.5 2.41l-109.09 64.02a5.59 5.59 0 0 1-5 0l-13.21-7.58c-1.42-.8-1.42-2.08-.04-2.88Zm144.71-111 14.81 8.5c.94.54 1 1.42.05 2l-49.1 28.61a3.65 3.65 0 0 1-3.34 0l-14.89-8.45c-.94-.54-.9-1.42 0-2l49.05-28.69a3.68 3.68 0 0 1 3.41.04Zm-23.52-13.49 14.81 8.5c.94.55.94 1.4.05 2l-37.81 22.1a3.59 3.59 0 0 1-3.34 0l-14.81-8.5c-1-.56-.92-1.4 0-1.93l37.79-22.11a3.65 3.65 0 0 1 3.3-.05ZM341.25 257l13.25 7.61h.08c1.35.78 1.34 2 0 2.81l-13.39 7.92a5.49 5.49 0 0 1-4.93 0l-13.25-7.61c-1.39-.8-1.4-2.08 0-2.88l13.41-7.84a5.4 5.4 0 0 1 4.83-.01Zm-28-13.66a5.39 5.39 0 0 1 4.93 0l13.25 7.61c1.35.78 1.36 2.05 0 2.83l-35.51 20.78a5.54 5.54 0 0 1-4.94 0l-13.25-7.61c-1.35-.78-1.4-2.08 0-2.88ZM19.92 208.51c0-7.36.08-14.71-.13-22.06a5.61 5.61 0 0 1 3.24-5.81q42.66-24.43 85.22-49.08L298.39 21.8c.8-.46 1.63-.87 3.2-1.7 0 10.78-.09 20.84.06 30.89 0 2.74-1.87 3.42-3.56 4.39q-24.72 14.33-49.49 28.57L26.25 212.34c-6.32 3.66-6.31 3.66-6.33-3.83Zm36.46 40.33a3.92 3.92 0 0 1 3.57-3.74c1.94-.15 1.7 1.62 1.77 3-.27 2-1.26 3.56-3.47 3.61-1.79.09-2.06-1.45-1.87-2.87Zm0-17.8c.22-2.16 1.11-4 3.56-4.13 1.64-.1 1.8 1.27 1.8 2.85-.22 1.91-1.09 3.7-3.53 3.84-1.61.09-1.96-1.26-1.87-2.56Zm-20.31 21.48c0-8.08 5.15-16 11.64-18.58 1.6-.64 3.12-1 4.61.14a1.39 1.39 0 0 1 .37 1.8c-.72 2-2.24 1.71-3.94 1.79-6.1.27-11.56 11.61-8.22 16.74 1.25 1.92 2.93 1.73 4.66 1.12 2-.71 3.31-2.3 4.53-3.95.68-.92 1.16-2.6 2.7-1.41s0 2.2-.55 3.14a13.5 13.5 0 0 1-4.47 4.67c-2.39 1.53-4.9 3.31-7.9 1.8s-3.52-4.56-3.43-7.26Zm17.75 160.74-13.25-7.6c-1.35-.78-1.36-2.06 0-2.86l12.74-7.46a5.4 5.4 0 0 1 4.94 0l13.26 7.6c1.35.78 1.39 2.08.05 2.86l-12.72 7.44a5.57 5.57 0 0 1-5.02.02Zm23.48 13.46-13.25-7.6c-1.35-.78-1.4-2.08-.06-2.86l31.37-18.33a5.49 5.49 0 0 1 4.93 0l13.25 7.6c1.35.78 1.4 2.08 0 2.88L82.25 426.7a5.42 5.42 0 0 1-4.95.02Zm23.31 13.36L87.4 432.5c-1.39-.8-1.4-2.07-.06-2.85l36.25-21.21a5.51 5.51 0 0 1 5 0l13.21 7.58c1.39.8 1.4 2.08 0 2.88l-36.25 21.21a5.39 5.39 0 0 1-4.94-.03Zm23.56 13.51-13.25-7.6c-1.43-.83-1.42-2.07-.06-2.86l47.87-28a5.4 5.4 0 0 1 4.89 0l13.25 7.61c1.35.77 1.36 2 0 2.83l-47.83 28a5.4 5.4 0 0 1-4.87.02Zm41.94 6.52-12.71 7.44a5.51 5.51 0 0 1-4.94 0l-13.21-7.58c-1.39-.81-1.4-2.08 0-2.88l12.72-7.44a5.45 5.45 0 0 1 4.94 0l13.21 7.58c1.33.82 1.33 2.11-.01 2.88Zm23.53-13.77-12.72 7.44a5.49 5.49 0 0 1-4.93 0l-13.25-7.6c-1.35-.78-1.36-2.05 0-2.88l12.72-7.39a5.28 5.28 0 0 1 4.93 0l13.26 7.61c1.32.82 1.33 2.04-.01 2.82Zm23.61-13.74-12.76 7.41a5.33 5.33 0 0 1-4.93 0l-13.31-7.58c-1.35-.78-1.36-2.05 0-2.85l12.72-7.44a5.4 5.4 0 0 1 4.89 0l13.25 7.6c1.39.78 1.4 2.06.14 2.86Zm6.41-6-14.41-8.26a1.17 1.17 0 0 1 0-2.22l27.18-15.89a4.18 4.18 0 0 1 3.79 0l14.4 8.27c1.06.61 1.07 1.6.05 2.19l-27.22 15.91a4.24 4.24 0 0 1-3.83 0Zm79.45 33.25-51.96-29.23a4.09 4.09 0 0 1 0-7.1l110.4-64.18a4.06 4.06 0 0 1 4.06 0l56 31.62Z"/></svg>