<svg xmlns="http://www.w3.org/2000/svg" id="Layer_2" data-name="Layer 2" viewBox="0 0 345.18 559.74"><defs/><path d="M268.81 645.69c11.84 2.23 25.43-1.5 39.27-2.86 11.45-1.13 23.3-2.7 35 .4 8 2.13 14.56 7 21.61 10.87 5.13 2.79 5.89 8.92 6.78 14.37.24 1.49-1 2.36-1.91 3.31-34.77 36.46-88.29 30-117.26 1.4a55 55 0 0 1-9.67-13.83c-1.24-2.34-.84-3.77 1.13-5.5 6.53-5.77 12.91-8.17 25.05-8.16ZM322.59 514.49c-1.06.14-1.57 2-3.27.35-4.84-4.76-4.72-11.74 1-16.75-.81 4.88-2.57 9.47-.08 14.68.63-4.51-.44-9.34 5.06-11.46.55 1.74-1.65 3.25-.28 5.16 4-2.21 8.64-1.33 13.05-2.08 3.27-.55 5.65 2.12 7.76 3.64 6.57 4.74 13.53 8.91 19.95 14 5.75 4.52 12.44 8.1 18.59 12.29 9.79 6.67 17.78 14.77 21 26.6.33 1.21.05 2.59.05 4.45l-7.67-4.43c-2.34 5.66 2.39 12.1-2.12 17.32-6.9-5.69-6.9-5.69-13.4-.34a99.76 99.76 0 0 0-.3-13.92c-1.14-10-7.68-16.79-14.31-22.63-9.52-8.37-21.09-13.94-33.33-17.8-3.82-1.21-7.22-8.2-6.09-12.17.28-1 .66-1.87.06-3-2.36 1.33-2.48 3.71-2.89 5.94-1.63-2.51 0-5.33-.53-8.72-2.69 3.04-2.12 6.05-2.25 8.87ZM309.55 513.67c-2.68 1.57-4.74 1.48-5.45-2.35-2.74 2.21-1.61 5.86-3.7 8.21-3 3.37-6.94 5-10.81 6.79-4.31 2-9 3.19-13.17 5.43-11.45 6.16-21 14.57-26.44 26.57-2 4.53-4 9.82-1.63 15.26.49 1.1.07 2.61.07 4-1 .46-1.44-.36-1.86-1-2.56-3.89-5.25-5.25-8.86-1-.75.88-2.26 2.46-3.75 1.36-1.21-.89-1.24-2.57-1.12-4.15.23-3.1-.25-6.24.79-9.32.28-.83.71-2.43-.6-3.08-1-.49-1.8.4-2.6 1-1.68 1.29-3.42 2.5-5.43 4-1.11-7.64 4.12-12.14 7.23-17.47 5.06-8.68 14.33-12.48 21.85-18.26 6.73-5.18 14.32-9.22 21.11-14.33 3.17-2.38 6.37-4.72 9.52-7.12 4.27-3.26 8.4-5 13.9-2.82 1.93.75 4.73-.62 6.8 1.14 1.44-2-.75-3.3-.2-5 6 2.63 4.28 7.79 4.25 12.38Zm-9.7-7.79c.83 2.23 1.19 3.37 3.3 4.18-.47-1.98-1.15-2.92-3.3-4.18Zm6.06 3.71c.91-1.41 1.18-2.27.2-3-.13-.09-.73.17-.72.21.1.74.26 1.47.52 2.79ZM180.8 402.87a44.28 44.28 0 0 1 2-4.36c5.21-8.39 10.44-16.47 9.24-27.35-.85-7.76 5.9-12.45 11.85-14.21 4-1.18 8.58-4.89 12-3.39 6.27 2.77 12.35-3.15 16.86-.3 5.15 3.25 10.51.24 14.83 2.85 1.92 1.16 3.52 3.86 5.88 3.44 9.82-1.76 14.88 6 21.6 10.38 2.14 1.38 4.09 3.33 3.6 6.58-.68 4.5-3.33 6.44-7.68 5.24a3.56 3.56 0 0 1-.93-.34c-13.4-8.7-29.06-7.12-43.82-9.47-8.81-1.41-16.35 2.07-22.4 8.5-6.94 7.37-15.11 13.53-21.19 21.74-.21.29-.78.31-1.84.69ZM445 401.74c-2.05-.58-2.39-2.61-3.37-4-7.19-10.1-15.51-19.34-28.16-21.51-15.27-2.62-30.79-3.67-44.45 6.5-2.77 2.06-5.76 4-9.27.73-3.23-3-6.6-5.82-4.16-10.94a5 5 0 0 0 .19-1c1.7-6.86 1.7-6.86 8.37-4a15.22 15.22 0 0 0 1.28-3.64c.33-3.68 1.65-3.64 4.27-1.65s4.75.68 7.45-1.89 6.52-1.91 9.9-1.22c1.82.36 4.53 1.35 5.19.26 3.09-5.06 6-.36 8.89-.27 1.89.06 4.05 2.46 5.77-.83.49-.94 2.46.41 3.33 1.18 4.33 3.82 10.23 4.51 14.59 8 1-1.36.73-2.56.77-3.71 4.08-1.37 20.16 29.94 19.41 37.99ZM474.92 310.65c-1-4.38 1.31-9-1.08-13.35a6.77 6.77 0 0 1-.43-5.32c1.29-2.7-.26-4.45-.75-6.75-1.74-8.16-2.72-16.45-4.83-24.61-1.33-5.13-1-10.64-4.35-15.27a14.48 14.48 0 0 1-2.92-6.1c-.51-3.84.23-7.73-4.53-9.85-1.6-.71-2.45-3.48-1.53-5.84.34-.87.93-1.62.15-2.73-3.95-5.56-7.73-11.23-11.67-16.8-5.6-7.92-13.68-13.95-17.69-23.12a2.69 2.69 0 0 0-1.9-1.47c-4.49.2-6.34-3.59-8.83-6.06a16.23 16.23 0 0 0-6-4.14c-2.11-.76-4.72-1.6-5.86-3.27-3.42-5-9.36-5.87-14-8.63-2.07-1.24-2.72-3.57-5-4.26-5.58-1.69-11.93-1.23-16.47-5.9-.26-.27-1.38-.08-1.83.25-2.13 1.55-3.57.25-4.58-1.28-1.21-1.84-2.91-1.63-4.65-2.09-4.33-1.14-9.19 1.3-12.87-1a24.29 24.29 0 0 0-9.52-3.39c-5.94-.94-12.47-2.56-17.79-1.88-7.19.92-14-.31-20.9-.34-6.11 0-12.39-.75-18.31.21-4.42.72-8.88 1-13.21 1.74-3.58.66-8-.58-10.4 1.23-3.88 2.91-8.23 1.29-12.22 2.93-2.59 1.06-4.9 1.73-7.32 3.62a27.25 27.25 0 0 1-11.17 4.71c-1.68.33-3.37-.88-3.61 1.88a1.43 1.43 0 0 1-1.59 1.5c-4.42-.11-7.43 2-10.23 5.36-4.47 5.31-12.5 6-16.13 13.06-2.65 5.19-10.71 6.19-12.06 13.13-6.09.39-3.76 9.15-9.72 9.84-.52.06-.92 2-1.19 3.06-.23.93.28 2.24-.72 2.75-4.86 2.47-6.92 6.37-6.64 11.75a2.55 2.55 0 0 1-1.9 2.67c-3.34.56-3.51 3.14-3.72 5.61a8.5 8.5 0 0 1-1.9 5.22c-3.66 4.59-2.18 11.65-6.93 16-.24.22.21 1.24.39 1.87.5 1.74-.26 3.06-1 4.64-2.19 4.78-5.24 9.67-5.55 14.67-.34 5.51-1.89 10.73-2.26 16.12-.22 3.22-4 4.87-2.65 8.87 1.39 4.22-.63 8.56-1.51 12.89-.85 4.13-3.83 8.65-.81 13.18.16 1.83-2.11 2.69-1.57 4.94 1.71 7.17-.38 14.36-.59 21.54-.12 4.19 1.1 5.4 4.73 5.42 5.3 0 10.63-.23 15.9.19a8.54 8.54 0 0 0 5.54-1.06c3.84-2.3 7.75-4.45 11.59-6.74 2.72-1.62 5.37-3.38 5.35-7.09q0-9.18-.12-18.37c.05-11.31.39-22.64 0-33.94-.14-4.47 1.47-6.37 5.36-7.88 28.75-11.22 58.73-16.58 89.33-18.93a469.45 469.45 0 0 1 88.14 1.87 627.27 627.27 0 0 1 94.78 18.44c2.51.68 3.35 1.75 3.32 4.4-.09 11 .07 22 .14 32.94-.85 6.94-.2 13.89-.11 20.83.12 8.71 4 11.85 12.54 12.43 5.62.38 6.29-2.4 7.15-6.76 1.2-6.16.34-12.36.85-18.52.35-2.77 1.64-6.11-.14-9.02Z" class="cls-1" transform="translate(-130.67 -137.16)"/><path d="M309.45 513.81c3.45-5.12 1.37-10.44.43-15.81 5.94 4.5 6.41 12.6.94 17-1.85 1.47-.7-1-1.26-1.3Z" class="cls-1" transform="translate(-130.67 -137.16)"/></svg>